<?xml version="1.0" standalone="no"?>
<!DOCTYPE svg PUBLIC "-//W3C//DTD SVG 20010904//EN"
 "http://www.w3.org/TR/2001/REC-SVG-20010904/DTD/svg10.dtd">
<svg version="1.0" xmlns="http://www.w3.org/2000/svg"
 width="1000.000000pt" height="1000.000000pt" viewBox="0 0 1000.000000 1000.000000"
 preserveAspectRatio="xMidYMid meet">

<g transform="translate(0.000000,1000.000000) scale(0.100000,-0.100000)"
fill="#000000" stroke="none">
<path d="M4730 9994 c-605 -43 -1080 -150 -1611 -362 -560 -224 -1121 -586
-1553 -1002 -385 -369 -673 -736 -918 -1170 -892 -1574 -859 -3528 87 -5069
677 -1104 1768 -1913 3010 -2231 1180 -303 2423 -171 3495 370 960 486 1739
1260 2220 2210 508 1005 662 2139 440 3250 -391 1954 -1930 3502 -3880 3905
-346 71 -580 95 -950 99 -157 2 -310 2 -340 0z m-2147 -1394 c-21 -78 -12
-297 16 -405 23 -88 83 -220 133 -293 142 -208 436 -410 868 -597 211 -91 264
-121 335 -187 43 -40 75 -83 110 -148 62 -114 113 -173 177 -206 68 -34 129
-40 228 -20 45 10 83 16 85 14 4 -4 65 -127 65 -130 0 -5 -269 10 -302 17 -65
13 -184 56 -234 84 -55 32 -71 57 -120 191 -45 123 -126 190 -344 284 -76 34
-100 40 -95 28 49 -117 42 -177 -46 -392 -38 -93 -43 -116 -47 -200 -8 -172
48 -282 233 -465 61 -60 137 -126 169 -145 76 -45 122 -85 129 -110 3 -11 2
-20 -2 -20 -13 0 -198 117 -258 162 -74 58 -167 156 -216 231 -114 171 -136
359 -66 567 26 78 32 112 33 190 2 156 -33 202 -281 371 -232 157 -348 245
-418 316 -102 102 -186 242 -231 386 -10 31 -21 57 -24 57 -21 0 -25 -343 -6
-470 7 -47 12 -87 10 -89 -7 -8 -74 148 -96 225 -19 66 -23 102 -23 219 1 168
19 247 95 400 42 84 125 203 135 193 2 -2 -3 -28 -12 -58z m4937 -125 c73
-147 94 -240 95 -405 0 -162 -18 -248 -75 -365 l-40 -80 8 65 c10 89 9 403 -2
465 l-8 50 -24 -70 c-51 -152 -149 -312 -253 -416 -75 -74 -188 -160 -408
-308 -176 -118 -236 -177 -259 -259 -21 -71 -15 -128 28 -274 30 -102 33 -126
33 -238 0 -104 -4 -136 -23 -190 -42 -123 -116 -224 -247 -340 -65 -58 -282
-210 -299 -210 -4 0 -6 12 -4 27 2 21 24 40 108 97 124 83 271 226 334 323 66
103 81 157 81 293 -1 103 -4 122 -29 180 -88 207 -106 303 -71 387 8 19 15 37
15 39 0 6 -160 -65 -221 -97 -75 -40 -165 -121 -190 -172 -12 -22 -28 -63 -36
-91 -37 -125 -70 -156 -223 -207 -83 -28 -114 -33 -255 -40 -88 -4 -161 -6
-163 -4 -2 2 11 33 29 70 24 50 36 64 48 60 85 -33 241 -31 306 3 59 30 118
99 165 193 47 93 116 171 199 226 31 21 123 68 206 106 409 186 636 328 801
498 159 166 237 333 265 571 10 90 3 222 -17 286 -15 48 83 -86 126 -173z
m-2146 -262 c-10 -45 -51 -130 -80 -168 -31 -41 -91 -79 -151 -94 l-42 -11 28
-31 c16 -17 57 -83 92 -146 73 -132 124 -195 182 -224 44 -23 37 -39 -17 -39
-78 0 -156 72 -276 254 -51 77 -64 68 -28 -21 83 -204 250 -381 362 -384 l31
-1 -30 -13 c-69 -32 -180 -4 -257 65 -25 21 -95 111 -157 199 -62 89 -114 161
-116 161 -2 0 1 -17 7 -37 38 -140 235 -453 285 -453 11 0 10 6 -4 27 -18 26
-17 27 2 19 11 -5 44 -16 74 -26 l55 -17 16 -69 c22 -90 33 -115 76 -180 38
-56 101 -108 147 -120 64 -16 6 -40 -74 -31 -69 8 -182 70 -226 123 -30 38
-87 153 -79 162 2 1 33 -11 70 -27 36 -17 66 -27 66 -23 -1 21 -45 57 -125
103 -49 28 -117 74 -149 103 -62 53 -162 180 -197 249 -29 56 -34 40 -9 -29
55 -155 72 -283 46 -355 -18 -50 -65 -109 -87 -109 -23 0 -23 -1 -3 67 10 36
15 77 12 117 -5 62 -42 176 -58 176 -5 0 -6 -22 -3 -48 16 -137 -81 -262 -204
-262 -49 0 -54 12 -13 32 45 23 84 74 119 158 13 29 35 72 48 94 22 34 25 47
19 97 -6 62 -29 129 -58 171 -18 26 -18 27 4 33 35 11 66 44 73 79 12 58 26
82 64 107 l37 24 -184 -2 c-141 -2 -198 -6 -239 -19 -29 -9 -56 -21 -59 -25
-15 -25 -19 -3 -8 44 27 103 74 120 334 122 204 1 356 24 259 40 -164 25 -281
37 -330 31 -33 -3 -59 -4 -59 -2 0 6 106 45 170 62 35 10 136 18 285 24 188 7
241 12 290 28 78 26 76 26 69 -5z m2410 -275 c68 -259 66 -540 -5 -722 -46
-117 -145 -260 -234 -337 -41 -36 -40 -31 11 41 68 96 134 263 154 390 13 88
10 307 -4 275 -21 -45 -80 -132 -115 -168 -57 -61 -141 -95 -141 -58 0 5 30
46 66 92 36 46 78 108 94 139 43 85 99 261 118 371 10 60 20 93 24 85 5 -8 19
-56 32 -108z m-5530 12 c40 -207 120 -394 217 -509 36 -43 59 -78 55 -86 -9
-24 -49 -17 -93 15 -50 37 -86 84 -136 175 l-38 70 5 -140 c7 -208 62 -398
157 -545 21 -33 39 -64 39 -67 0 -14 -94 84 -135 142 -60 84 -123 214 -147
304 -27 101 -30 350 -5 491 16 87 57 244 62 238 2 -2 10 -41 19 -88z m321
-117 c9 -38 -10 -52 -36 -27 -17 18 -18 24 -8 47 14 31 33 22 44 -20z m4875
11 c0 -14 -7 -27 -15 -30 -27 -11 -34 0 -19 34 15 37 34 35 34 -4z m-2804 -19
c9 -24 -15 -45 -51 -45 -40 0 -63 23 -45 45 17 20 89 20 96 0z m-202 -64 c127
-63 240 -216 220 -297 -6 -22 -7 -22 -136 -18 -92 4 -140 10 -161 21 -30 15
-30 16 -11 30 15 12 37 14 103 9 46 -4 96 -9 110 -13 l26 -6 -30 32 c-46 50
-161 102 -237 108 -98 8 -151 -24 -198 -117 l-23 -45 -15 35 c-8 19 -17 64
-19 100 -5 60 -3 68 25 106 18 25 52 52 84 68 48 25 61 27 127 22 55 -3 90
-12 135 -35z m-1800 -67 c8 -20 -16 -59 -45 -74 -44 -24 -69 45 -27 74 29 21
64 20 72 0z m4764 0 c25 -17 26 -22 12 -59 -10 -25 -10 -25 -40 -10 -27 14
-50 49 -50 76 0 15 54 10 78 -7z m-4685 -111 c4 -3 -2 -13 -13 -20 -34 -24
-63 -94 -70 -168 l-6 -70 -17 37 c-9 21 -17 62 -17 91 0 62 23 101 74 123 36
16 40 16 49 7z m4603 -22 c62 -38 80 -147 34 -203 l-19 -23 -1 37 c0 83 -20
136 -63 173 l-41 35 30 0 c16 0 43 -9 60 -19z m141 -33 c-3 -7 -5 -2 -5 12 0
14 2 19 5 13 2 -7 2 -19 0 -25z m-288 -15 c10 -21 29 -47 41 -58 56 -50 67
-137 29 -224 -26 -62 -49 -85 -49 -50 0 13 -9 56 -20 94 -27 92 -40 184 -33
234 3 23 7 41 9 41 2 0 12 -17 23 -37z m-4349 -65 c0 -78 -48 -279 -67 -285
-18 -6 -55 107 -56 173 -2 62 -2 62 53 122 30 33 58 60 63 61 4 0 7 -32 7 -71z
m151 -16 c30 -41 34 -55 34 -108 0 -55 -4 -68 -37 -115 -47 -68 -65 -112 -74
-177 -3 -29 -10 -52 -14 -52 -18 0 -41 80 -41 145 -1 56 6 90 35 169 23 62 36
116 36 147 0 60 13 58 61 -9z m4079 13 c0 -26 15 -89 36 -147 40 -116 50 -228
23 -282 -20 -41 -39 -45 -39 -8 0 49 -27 120 -71 188 -50 78 -61 141 -34 195
23 46 64 99 76 99 5 0 9 -20 9 -45z m-3917 -120 c4 -8 2 -17 -4 -21 -15 -9
-39 3 -39 21 0 19 36 20 43 0z m3747 0 c0 -9 -7 -18 -16 -22 -18 -7 -39 11
-30 26 11 17 46 13 46 -4z m706 -91 c-7 -19 -56 -38 -68 -26 -5 5 7 23 29 42
32 28 39 31 41 16 2 -9 1 -24 -2 -32z m-5362 -261 c71 -105 191 -230 291 -301
48 -34 81 -62 73 -62 -30 0 -131 31 -178 55 -56 28 -151 118 -176 167 -30 57
-26 15 7 -83 38 -114 87 -213 146 -296 55 -77 232 -246 306 -293 96 -60 64
-70 -47 -15 -203 101 -392 299 -476 501 -61 147 -110 397 -110 561 l0 66 58
-114 c31 -63 79 -147 106 -186z m201 267 c34 -35 30 -44 -14 -29 -27 10 -51
34 -51 53 0 17 40 2 65 -24z m148 2 c27 -9 60 -27 73 -41 28 -27 116 -172 110
-178 -7 -7 -115 26 -156 47 -26 13 -41 31 -54 62 -9 24 -28 65 -42 91 l-25 49
23 -7 c13 -3 45 -14 71 -23z m2490 -25 c53 -49 57 -56 57 -98 0 -31 -8 -56
-25 -82 -14 -20 -29 -37 -34 -37 -13 0 -60 153 -64 213 -2 31 -1 57 2 57 3 0
32 -24 64 -53z m2417 46 c0 -3 -7 -14 -16 -24 -8 -9 -25 -45 -38 -80 -27 -75
-48 -93 -143 -119 -94 -26 -99 -25 -73 8 12 15 40 56 63 92 39 60 47 67 117
97 78 34 90 37 90 26z m414 -248 c-30 -216 -101 -414 -199 -550 -55 -77 -173
-194 -256 -252 -73 -51 -183 -107 -201 -101 -6 2 22 29 63 60 91 69 241 222
296 303 56 84 98 170 134 276 31 93 34 137 6 84 -23 -45 -108 -129 -160 -160
-48 -27 -157 -65 -191 -65 -13 0 -7 8 20 26 188 127 338 305 449 533 l50 103
3 -69 c2 -37 -4 -122 -14 -188z m-4648 200 c50 -32 55 -119 10 -168 -33 -36
-70 -43 -113 -23 -30 14 -34 20 -31 49 2 27 8 33 31 35 23 3 27 0 27 -22 0
-21 5 -26 25 -26 29 0 44 28 37 66 -15 79 -138 77 -192 -4 -22 -33 -25 -47
-25 -132 0 -87 3 -101 32 -160 18 -36 56 -96 85 -135 l53 -70 5 101 5 101 72
109 c40 60 73 101 73 92 0 -9 -16 -61 -36 -115 -30 -83 -37 -115 -41 -206 -6
-125 8 -200 62 -309 18 -38 31 -68 30 -68 -12 0 -221 255 -278 340 -104 156
-121 197 -122 300 0 73 4 93 28 141 28 58 78 102 133 119 35 10 102 2 130 -15z
m3649 -8 c52 -30 91 -88 111 -166 21 -83 14 -135 -30 -228 -56 -118 -162 -261
-335 -453 l-41 -45 24 45 c13 25 37 83 52 130 23 71 28 102 28 190 0 108 -4
126 -55 262 -35 92 -38 129 -8 78 12 -19 43 -67 69 -105 54 -79 76 -159 68
-245 -3 -27 -2 -50 2 -50 11 0 137 190 156 235 36 85 17 238 -36 295 -69 74
-190 29 -167 -62 11 -41 33 -41 56 -2 18 30 24 33 41 24 45 -24 13 -100 -42
-100 -76 0 -135 102 -98 170 28 52 136 66 205 27z m-1922 -184 c9 -17 21 -34
26 -37 17 -11 22 -80 9 -125 l-13 -45 -42 70 c-71 117 -79 164 -41 237 l21 42
12 -55 c6 -30 19 -69 28 -87z m-2482 77 c10 -6 19 -17 19 -26 0 -12 -7 -11
-40 6 -22 11 -40 23 -40 25 0 9 41 5 61 -5z m2229 -23 c0 -66 -88 -159 -180
-192 -46 -16 -123 -19 -155 -5 l-20 9 20 0 c31 2 90 41 129 88 21 24 63 55
101 74 36 18 71 39 77 46 18 22 28 15 28 -20z m2801 13 c-20 -17 -81 -29 -81
-15 0 10 56 34 80 34 l25 0 -24 -19z m-3861 -4 c19 -23 8 -61 -18 -64 -13 -2
-30 2 -38 8 -14 13 -19 51 -7 63 12 12 50 7 63 -7z m2694 1 c38 -27 -2 -95
-41 -71 -22 14 -29 64 -11 75 18 12 31 11 52 -4z m-2542 -100 c14 -22 3 -42
-32 -59 -19 -10 -41 -25 -47 -35 -24 -31 -15 -103 22 -183 19 -41 35 -69 35
-62 0 19 61 52 95 52 36 0 98 -36 92 -53 -2 -8 -20 -11 -49 -9 -26 2 -56 -2
-68 -8 -23 -12 -77 -117 -66 -127 3 -4 17 -1 31 5 45 21 93 15 110 -12 29 -43
-18 -94 -75 -82 -52 10 -79 -53 -60 -139 16 -73 66 -170 107 -210 l36 -35 -33
11 c-70 25 -145 130 -175 245 -17 65 -13 164 11 243 14 48 9 67 -30 109 -51
57 -130 69 -171 27 -25 -25 -30 -41 -19 -69 7 -19 27 -20 53 -4 47 29 69 -25
26 -67 -34 -35 -70 -32 -111 9 -28 28 -34 42 -34 75 0 44 18 89 45 111 23 19
91 29 133 19 20 -4 37 -7 39 -6 1 2 -5 27 -13 56 -27 91 4 184 70 212 25 10
68 2 78 -14z m1408 -78 c0 -40 -18 -99 -29 -99 -5 0 -16 18 -26 40 -19 43 -25
112 -11 145 7 19 10 18 37 -15 20 -24 29 -45 29 -71z m1040 72 c38 -27 57
-100 43 -164 -6 -29 -14 -59 -18 -68 -5 -13 3 -15 55 -11 74 5 113 -10 140
-53 26 -43 25 -94 -2 -135 -41 -60 -115 -65 -143 -10 -27 52 5 83 56 53 26
-16 31 -16 39 -3 16 25 11 50 -15 75 -41 42 -122 29 -170 -27 -41 -48 -45 -62
-28 -114 23 -74 22 -217 -3 -279 -38 -95 -107 -182 -160 -202 -15 -5 -13 1 9
30 52 68 100 183 100 240 1 75 -14 97 -67 97 -32 0 -48 6 -66 25 -20 21 -22
28 -12 50 14 31 51 40 102 27 38 -9 40 -9 40 15 0 30 -21 72 -49 97 -17 15
-30 18 -71 13 -37 -5 -50 -3 -50 7 0 23 38 48 83 53 36 4 48 1 73 -20 l30 -26
29 67 c22 49 30 83 30 126 0 59 0 59 -40 80 -45 24 -56 53 -29 73 22 16 58 10
94 -16z m-1425 -19 c3 -21 1 -51 -5 -66 -13 -34 -48 -86 -59 -86 -27 0 -41
113 -18 142 13 17 58 48 68 48 4 0 10 -17 14 -38z m2594 12 c8 -7 -52 -65 -82
-81 -29 -14 -207 -34 -207 -22 0 6 44 27 105 50 43 16 13 23 -42 10 -25 -7
-47 -10 -50 -8 -8 9 94 50 142 57 45 7 124 3 134 -6z m-4661 -22 c48 -26 57
-46 13 -31 -16 6 -42 9 -58 7 -23 -3 -17 -7 39 -26 37 -13 70 -27 72 -31 5 -7
-110 -4 -183 5 -48 6 -111 57 -111 89 0 27 169 17 228 -13z m405 -35 l48 -12
-23 -35 c-18 -26 -32 -36 -56 -38 -43 -4 -62 12 -62 53 0 50 10 54 93 32z
m3705 1 c18 -18 15 -42 -9 -72 -28 -35 -61 -33 -93 5 -14 17 -26 34 -26 39 0
9 74 38 101 39 8 1 20 -4 27 -11z m-3294 -34 c7 -19 -10 -44 -31 -44 -17 0
-27 24 -19 45 7 20 42 19 50 -1z m2850 -10 c8 -21 -1 -34 -24 -34 -22 0 -34
15 -26 35 7 20 42 19 50 -1z m-1260 -137 c20 -25 52 -55 71 -68 19 -13 35 -27
35 -31 0 -5 -136 -8 -302 -8 l-301 0 39 29 c56 41 119 109 147 160 l25 43 42
-71 c23 -39 46 -71 50 -71 16 0 70 75 87 118 l16 43 27 -50 c15 -27 44 -70 64
-94z m-1304 105 c28 -23 20 -59 -16 -68 -46 -12 -70 32 -37 68 20 22 25 22 53
0z m2274 2 c19 -18 19 -20 6 -45 -16 -29 -58 -25 -66 6 -11 45 29 71 60 39z
m-1455 -48 c17 -29 31 -58 31 -63 0 -5 -20 -23 -44 -40 l-44 -31 -16 42 c-23
59 -20 86 11 118 15 15 28 28 29 28 1 0 16 -24 33 -54z m648 28 c21 -16 33
-34 33 -49 0 -30 -29 -105 -41 -105 -19 0 -79 74 -79 97 0 23 34 83 47 83 3 0
21 -11 40 -26z m-2465 -51 l33 -18 -30 -2 c-80 -8 -115 -15 -110 -24 4 -5 35
-9 71 -9 64 0 125 -17 139 -40 4 -6 5 -13 4 -14 -2 -2 -58 0 -124 4 -95 5
-129 12 -165 30 -52 26 -90 58 -90 76 0 28 219 26 272 -3z m4498 10 c11 -11
-71 -72 -125 -92 -68 -26 -269 -39 -263 -18 9 26 72 47 145 47 39 0 74 4 77 9
7 10 -51 21 -114 21 -41 0 -43 1 -24 14 39 28 88 35 194 30 58 -3 107 -8 110
-11z m-1461 -300 c53 -594 0 -939 -187 -1215 -118 -173 -243 -278 -541 -455
l-195 -116 -60 33 c-289 157 -428 252 -547 370 -159 159 -242 304 -294 518
-40 164 -49 254 -48 492 0 195 17 487 28 498 2 2 20 -2 40 -9 l37 -14 -6 -50
c-18 -153 -26 -452 -17 -581 31 -404 114 -605 337 -813 94 -88 196 -156 384
-257 l144 -78 101 53 c139 74 336 207 423 286 265 243 361 563 333 1106 -6
118 -14 243 -17 279 l-6 65 33 11 c19 6 37 12 40 13 3 0 11 -61 18 -136z
m1131 70 c0 -43 -35 -93 -65 -93 -27 0 -42 21 -47 65 -3 26 1 31 32 42 60 21
80 17 80 -14z m-4025 5 c23 -10 26 -17 21 -42 -8 -39 -24 -56 -52 -56 -28 0
-64 47 -64 84 0 23 4 26 35 26 19 0 46 -5 60 -12z m-208 -37 c29 -43 29 -53
-1 -45 -52 13 -75 -69 -37 -132 27 -44 66 -71 225 -156 202 -108 197 -132 -11
-52 -152 59 -205 88 -253 140 -46 50 -64 109 -57 184 10 98 86 132 134 61z
m4451 19 c76 -71 34 -242 -78 -316 -44 -30 -281 -120 -338 -129 l-37 -6 27 23
c15 13 88 54 163 92 155 78 197 112 216 175 17 56 -2 96 -44 96 -35 -1 -36 27
-2 60 29 30 64 32 93 5z m-2825 -5 c61 -8 108 -48 147 -125 26 -52 35 -79 55
-175 6 -26 8 -28 18 -14 21 28 55 41 76 29 47 -25 62 -76 40 -139 -14 -39 -33
-40 -56 -1 -16 28 -48 48 -60 37 -2 -3 0 -37 6 -76 15 -96 14 -171 -5 -319
-32 -251 9 -545 87 -634 18 -21 20 -21 14 -3 -42 117 21 338 134 474 83 99
100 179 78 368 -8 66 -7 72 11 82 16 8 27 6 54 -13 l35 -23 16 46 c42 124 43
126 74 126 25 0 28 4 33 40 4 31 10 41 26 43 12 2 28 -4 37 -12 22 -22 24 -21
32 22 7 41 48 127 72 155 25 27 49 21 68 -19 16 -34 16 -88 -1 -146 -4 -12 2
-17 21 -20 l26 -3 -25 -50 c-22 -42 -23 -51 -11 -58 8 -4 15 -14 15 -21 0 -15
-66 -88 -95 -104 -17 -10 -18 -13 -5 -21 12 -8 11 -14 -9 -35 -14 -14 -39 -31
-58 -38 -31 -11 -45 -28 -23 -28 27 0 5 -30 -40 -54 -27 -15 -50 -34 -50 -42
0 -8 2 -14 5 -14 3 0 69 18 147 41 217 61 328 63 395 5 37 -32 26 -40 -28 -20
-63 22 -184 28 -239 12 l-45 -14 62 -33 c166 -89 230 -243 141 -338 -25 -27
-55 -29 -85 -8 -20 14 -26 14 -60 -5 -51 -27 -77 -25 -103 7 -25 32 -22 44 13
61 32 16 34 35 7 62 -28 28 -68 25 -102 -7 -15 -14 -30 -24 -33 -21 -11 10 14
93 31 105 23 17 56 16 99 -1 48 -21 69 -56 63 -111 -3 -25 -4 -45 -3 -45 58 0
87 129 45 198 -28 45 -98 75 -175 76 -47 0 -74 -7 -125 -32 -162 -78 -293
-192 -348 -302 -18 -35 -32 -73 -32 -84 0 -17 5 -15 30 16 39 48 116 95 166
103 89 15 158 -29 193 -121 19 -48 19 -49 26 -21 22 84 -25 209 -83 223 -39
10 -46 15 -31 25 30 19 85 10 111 -18 67 -72 65 -257 -5 -331 -52 -56 -130
-68 -188 -29 -28 18 -34 29 -34 57 0 26 6 37 24 47 32 15 61 0 61 -32 0 -33
16 -40 45 -21 34 22 34 73 1 109 -77 83 -214 43 -276 -79 -28 -56 -37 -153
-22 -221 5 -24 8 -43 6 -43 -2 0 -26 14 -53 31 -146 89 -198 309 -173 736 14
258 -4 478 -50 602 -39 105 -148 183 -207 151 -26 -13 -44 -55 -36 -81 8 -23
18 -24 50 -3 33 21 65 4 65 -35 0 -54 -81 -80 -136 -45 -54 36 -72 128 -34
177 29 36 49 38 183 22z m877 -20 c0 -64 -75 -112 -100 -66 -21 40 -12 61 33
81 59 27 67 26 67 -15z m147 24 c14 -14 6 -39 -12 -39 -21 0 -36 25 -23 38 15
15 21 15 35 1z m228 -4 c38 -19 55 -51 55 -106 0 -55 -24 -102 -74 -145 -46
-40 -95 -68 -103 -60 -3 3 17 30 45 61 79 86 90 162 29 199 -26 16 -62 -27
-46 -56 6 -11 8 -26 5 -34 -15 -39 -66 11 -66 64 0 74 78 113 155 77z m-789
-12 c25 -26 64 -114 64 -147 0 -41 14 -23 35 47 24 77 53 107 104 107 58 0 60
-17 6 -63 -40 -34 -59 -65 -121 -192 -54 -112 -87 -167 -128 -213 -31 -35 -56
-57 -56 -50 0 7 25 66 56 131 31 65 59 138 62 162 6 56 -12 122 -49 181 -16
24 -29 47 -29 49 0 12 40 3 56 -12z m2604 12 c0 -3 -6 -20 -14 -39 -10 -25
-26 -38 -65 -55 -29 -12 -57 -21 -62 -19 -5 2 1 23 13 48 17 32 32 47 58 56
38 13 70 17 70 9z m-4914 -45 c15 -22 25 -43 22 -46 -11 -10 -104 19 -120 38
-31 35 -23 48 27 48 41 0 47 -3 71 -40z m2148 -2 c30 -42 16 -111 -32 -160
-14 -16 -29 -28 -34 -28 -11 0 -10 60 3 122 19 90 35 106 63 66z m-2590 -25
c68 -89 167 -191 241 -250 100 -80 258 -168 333 -184 114 -26 16 -48 -103 -24
-44 9 -107 28 -141 41 -33 13 -64 24 -67 24 -15 0 67 -101 140 -174 108 -106
220 -188 338 -246 112 -56 107 -62 -21 -24 -298 86 -537 307 -671 618 -33 78
-85 246 -76 246 3 0 15 -12 27 -27z m5677 -85 c-60 -199 -174 -392 -304 -515
-112 -106 -292 -206 -448 -248 -88 -23 -105 -15 -32 15 125 51 282 161 396
276 69 69 133 151 125 160 -3 2 -30 -7 -60 -20 -105 -47 -264 -67 -283 -37 -2
5 16 14 41 20 71 18 166 64 248 121 71 49 284 258 321 314 10 15 20 25 22 22
2 -2 -9 -51 -26 -108z m-4651 45 c0 -29 -35 -8 -38 22 -4 30 -4 30 17 11 12
-11 21 -25 21 -33z m3668 26 c-3 -24 -33 -48 -44 -36 -8 8 23 57 37 57 6 0 9
-10 7 -21z m-3894 -72 c8 -14 8 -20 -4 -27 -39 -25 -81 -2 -66 36 8 20 55 15
70 -9z m4154 -5 c4 -26 -17 -37 -53 -28 -15 4 -25 14 -25 25 0 26 10 32 45 29
22 -2 31 -9 33 -26z m-3441 -6 c24 -21 26 -27 18 -52 -17 -48 -84 -45 -105 5
-26 63 32 94 87 47z m1504 14 c24 -14 24 -51 0 -81 -16 -20 -23 -22 -38 -13
-18 11 -29 63 -19 90 6 17 30 18 57 4z m1234 -11 c12 -18 -4 -58 -30 -75 -55
-36 -108 15 -64 62 24 25 82 34 94 13z m-3290 -29 c106 -26 140 -43 188 -92
51 -52 55 -72 22 -94 -18 -12 -26 -7 -83 47 -35 33 -66 58 -69 55 -3 -3 16
-31 42 -63 38 -47 44 -59 30 -61 -82 -17 -186 80 -210 197 -6 30 -5 33 11 29
11 -3 42 -11 69 -18z m1743 -18 c3 -17 -2 -22 -17 -22 -16 0 -21 6 -21 26 0
33 33 30 38 -4z m2092 0 c0 -70 -125 -192 -197 -192 -18 0 -33 3 -33 7 0 4 23
31 52 60 28 29 49 56 45 60 -4 4 -34 -19 -66 -51 -60 -59 -84 -67 -105 -34 -8
14 -4 26 19 60 39 54 81 78 175 99 106 24 110 24 110 -9z m-3012 -28 c36 -25
27 -84 -14 -84 -37 0 -59 61 -32 88 15 15 19 15 46 -4z m2156 -6 c7 -11 7 -26
0 -45 -20 -59 -97 -30 -78 30 12 40 56 49 78 15z m-1611 -46 c40 -44 71 -136
75 -222 l4 -85 -36 52 c-19 28 -58 71 -86 95 -70 60 -95 100 -79 130 7 13 19
28 28 35 24 18 76 16 94 -5z m1272 -16 c18 -13 17 -15 -15 -35 -39 -23 -114
-29 -108 -8 4 11 83 57 98 57 3 0 15 -6 25 -14z m-1475 -71 c10 -12 9 -16 -5
-21 -19 -8 -40 9 -31 25 10 15 21 14 36 -4z m770 -14 c0 -24 -18 -37 -32 -23
-8 8 -7 16 2 27 17 21 30 19 30 -4z m1575 -21 c15 -6 29 -19 32 -30 3 -11 13
-20 23 -20 10 0 32 -12 49 -26 37 -31 42 -75 11 -97 -18 -13 -19 -18 -9 -41
17 -37 -12 -101 -41 -93 -15 4 -20 0 -20 -13 0 -32 -22 -70 -44 -76 -37 -9
-200 2 -223 14 -14 8 -26 29 -33 55 -6 23 -19 61 -30 85 -11 23 -20 53 -20 67
0 57 75 75 129 29 34 -28 33 -44 -4 -44 -30 0 -56 -25 -48 -46 5 -13 15 -15
44 -10 42 7 53 -10 24 -34 -17 -14 -20 -56 -5 -65 20 -13 50 7 58 37 10 40 28
47 36 15 6 -26 31 -41 48 -31 5 3 8 22 6 43 -3 34 -1 36 31 41 43 6 51 27 17
40 -33 12 -33 27 -1 42 29 13 29 35 2 52 -15 9 -22 7 -37 -11 -25 -32 -38 -29
-42 9 -4 46 -35 51 -51 9 -8 -22 -18 -31 -33 -31 -28 0 -56 43 -52 78 3 24 8
27 47 30 24 2 50 10 58 18 17 17 42 18 78 4z m-3181 -15 c3 -8 12 -12 21 -9
24 10 63 -4 76 -27 16 -30 3 -66 -29 -83 -31 -16 -56 -8 -47 15 3 8 -1 23 -8
33 -20 28 -47 14 -47 -24 0 -35 -10 -38 -35 -10 -24 27 -59 22 -63 -7 -3 -17
3 -26 22 -33 33 -12 33 -26 1 -34 -18 -5 -25 -13 -25 -31 0 -22 4 -25 33 -23
31 3 32 2 32 -37 0 -33 3 -40 20 -40 12 0 25 11 33 27 14 30 42 29 42 -2 0 -9
9 -25 21 -36 17 -16 22 -16 29 -4 13 20 12 57 -1 65 -21 14 -1 30 37 30 49 0
53 24 7 45 -41 19 -38 38 9 62 32 17 41 18 65 6 39 -19 43 -70 9 -137 -14 -28
-26 -57 -26 -66 0 -9 -11 -27 -24 -40 -23 -23 -31 -25 -136 -24 -126 1 -150
12 -150 69 0 25 -4 30 -23 30 -15 0 -29 9 -37 25 -11 21 -10 28 4 50 17 26 17
28 -3 49 -30 31 -27 72 7 101 15 13 33 25 41 25 7 0 26 11 43 25 34 28 92 34
102 10z m2189 8 c10 -9 -23 -43 -43 -43 -26 0 -31 12 -13 32 16 18 44 24 56
11z m-1350 -57 c42 -17 83 -59 117 -120 25 -43 29 -46 38 -30 10 18 12 18 39
-2 15 -11 39 -41 53 -65 20 -36 25 -58 25 -121 0 -100 -17 -120 -35 -41 -15
72 -39 133 -51 133 -12 0 -11 -23 5 -99 12 -57 12 -62 -1 -45 -20 27 -61 106
-100 194 -36 81 -76 131 -93 114 -15 -15 55 -153 145 -285 41 -62 75 -116 75
-121 0 -5 -21 9 -46 31 -27 23 -57 41 -70 41 -33 0 -30 -12 7 -34 41 -24 99
-83 99 -101 0 -27 -228 149 -230 177 0 4 25 8 55 10 l54 3 -53 69 c-77 99
-101 150 -101 216 0 60 8 90 25 90 6 0 25 -6 43 -14z m-1146 -37 c26 -10 43
-25 43 -41 0 -5 -31 -8 -69 -8 -95 0 -102 -18 -9 -22 l73 -3 3 -31 c3 -27 -1
-33 -30 -45 -51 -22 -125 -17 -191 14 -62 28 -75 46 -59 81 23 52 163 84 239
55z m2620 -16 c8 -21 -24 -79 -55 -99 -25 -16 -25 -16 -18 12 25 103 17 107
-60 34 -53 -50 -82 -64 -70 -34 29 75 6 87 -44 24 -32 -41 -67 -66 -77 -56 -7
7 20 48 64 97 37 41 66 49 93 24 14 -13 20 -13 52 3 41 21 106 18 115 -5z
m1256 14 c18 -8 47 -26 64 -41 43 -36 33 -54 -47 -90 -67 -30 -134 -36 -192
-17 -29 10 -38 18 -38 35 0 36 20 46 88 46 39 0 61 4 57 10 -3 6 -35 10 -71
10 -48 0 -64 4 -64 14 0 16 18 32 45 39 41 10 127 7 158 -6z m-2083 -70 c0 -8
-20 -28 -45 -46 -68 -49 -79 -81 -28 -81 33 0 29 -10 -22 -58 -45 -42 -85
-107 -85 -138 0 -16 3 -15 23 3 21 20 60 43 71 43 19 0 0 -34 -42 -76 -34 -34
-54 -66 -67 -104 -18 -55 -18 -55 -27 -25 -12 40 -1 231 16 289 20 66 72 142
120 176 43 31 86 39 86 17z m-1455 -13 c20 -20 15 -36 -15 -51 -28 -14 -47 -8
-56 20 -4 14 -1 25 12 34 24 17 39 16 59 -3z m3112 0 c9 -24 -10 -49 -37 -49
-31 0 -48 28 -31 49 17 21 60 21 68 0z m-3760 -75 c21 -23 54 -49 73 -60 l35
-18 -28 -1 c-40 0 -172 65 -191 95 l-16 25 44 0 c40 0 50 -5 83 -41z m4457 26
c-8 -19 -90 -71 -143 -90 -24 -8 -62 -15 -85 -14 l-41 0 50 20 c28 10 73 37
100 58 37 30 59 40 87 40 29 1 36 -2 32 -14z m-3473 -32 c46 -30 46 -47 1 -51
-18 -2 -32 -8 -32 -13 0 -21 30 -68 60 -92 49 -42 40 -46 -44 -22 -29 9 -62
25 -74 36 -24 22 -29 67 -11 102 11 22 49 67 56 67 2 0 21 -12 44 -27z m2438
-8 c24 -27 31 -45 31 -75 0 -51 -23 -74 -91 -94 -82 -25 -88 -20 -38 28 50 47
67 84 43 92 -8 2 -21 6 -30 9 -23 7 -13 47 16 62 34 17 34 17 69 -22z m-3029
-37 c0 -6 -13 -35 -30 -65 -16 -29 -30 -55 -30 -58 0 -14 23 9 46 47 l26 40
24 -23 c33 -31 30 -65 -9 -104 -49 -49 -126 -65 -149 -31 -23 34 4 122 54 174
32 32 68 43 68 20z m3608 -22 c35 -40 65 -114 60 -147 -2 -15 -15 -29 -33 -38
-27 -13 -33 -12 -74 11 -25 13 -54 37 -65 51 -17 23 -18 31 -7 67 6 22 18 40
26 40 8 0 29 -21 46 -47 38 -55 52 -43 16 14 -13 21 -27 48 -31 61 -12 35 27
28 62 -12z m-4216 -140 c132 -75 358 -146 465 -146 39 0 54 -4 51 -12 -14 -41
-143 -49 -291 -19 l-88 17 38 -39 c170 -176 508 -319 718 -302 58 4 66 3 45
-6 -15 -8 -84 -12 -180 -13 -126 -1 -167 3 -220 18 -192 57 -325 140 -490 306
-105 105 -216 240 -263 320 -18 29 -12 27 75 -33 51 -35 114 -76 140 -91z
m4961 95 c-65 -101 -159 -214 -265 -317 -153 -149 -266 -219 -435 -271 -77
-23 -106 -26 -228 -27 -91 0 -147 4 -160 12 -17 9 -7 11 58 12 188 0 415 92
602 244 86 70 119 108 79 92 -80 -33 -283 -45 -339 -22 -51 22 -43 36 19 36
162 0 420 100 618 240 45 32 84 59 86 59 1 1 -14 -26 -35 -58z m-3639 16 c19
-28 47 -147 36 -147 -13 0 -57 60 -70 95 -12 31 -6 75 10 75 5 0 16 -10 24
-23z m2156 -26 c0 -29 -9 -49 -37 -85 -21 -25 -39 -42 -41 -36 -2 5 4 37 13
72 25 97 65 127 65 49z m-3059 -24 c-12 -31 -39 -46 -51 -27 -13 21 -13 23 11
49 26 27 53 13 40 -22z m3965 17 c12 -17 12 -23 0 -39 -12 -16 -16 -17 -30 -6
-22 18 -22 74 0 69 9 -2 23 -12 30 -24z m-1274 -11 c22 -20 23 -46 3 -63 -30
-25 -70 16 -54 58 10 26 26 28 51 5z m733 -58 c29 -28 30 -34 11 -80 -28 -65
-98 -79 -236 -46 -56 13 -82 16 -103 8 -22 -7 -25 -12 -15 -18 7 -5 22 -9 33
-9 46 0 100 -25 199 -90 136 -90 157 -100 204 -100 50 0 66 19 58 64 -7 38
-31 53 -53 34 -12 -10 -18 -9 -29 7 -18 25 -18 40 2 60 31 31 100 -9 121 -70
17 -48 11 -109 -12 -135 -10 -11 -37 -22 -60 -26 -57 -8 -107 15 -214 100 -47
36 -110 79 -140 94 -49 24 -67 27 -154 27 -114 0 -121 10 -44 62 64 43 120 50
228 29 73 -14 93 -14 125 -4 44 15 51 39 15 48 -13 3 -29 13 -34 21 -31 49 53
70 98 24z m-2841 9 c9 -3 16 -17 16 -30 0 -20 -5 -24 -29 -24 -37 0 -50 -19
-26 -37 23 -16 102 -17 194 -1 61 10 77 10 125 -5 56 -18 116 -59 116 -80 0
-8 -30 -12 -97 -12 -91 0 -103 -3 -165 -34 -37 -18 -95 -56 -130 -85 -114 -94
-127 -100 -189 -101 -48 0 -62 4 -84 25 -25 23 -27 30 -23 88 3 54 8 67 34 93
51 50 113 41 114 -17 0 -29 -25 -51 -34 -29 -13 34 -66 -1 -66 -45 0 -36 17
-50 62 -50 47 0 100 26 196 96 76 55 146 86 221 99 30 5 39 10 30 16 -22 14
-98 11 -176 -8 -93 -21 -138 -12 -170 36 -27 40 -29 68 -6 93 16 18 57 24 87
12z m3026 -81 c0 -25 -18 -30 -51 -13 -21 12 -26 46 -6 53 23 8 57 -15 57 -40z
m-3222 22 c11 -11 -23 -35 -49 -35 -34 0 -45 15 -28 36 12 14 63 14 77 -1z
m1802 0 c0 -8 -7 -15 -15 -15 -9 0 -12 6 -9 15 4 8 10 15 15 15 5 0 9 -7 9
-15z m-765 -127 c54 -38 69 -62 82 -135 l9 -52 -25 19 c-14 10 -53 46 -86 80
-33 34 -73 68 -89 77 -28 15 -29 16 -11 29 30 22 69 16 120 -18z m-1175 -28
c0 -53 -38 -68 -66 -25 -21 33 -6 53 36 47 21 -3 30 -10 30 -22z m3500 -3 c0
-47 -54 -66 -69 -24 -13 33 -3 47 35 47 29 0 34 -4 34 -23z m-2770 -53 c50
-20 51 -34 2 -34 -22 0 -61 -7 -88 -15 -67 -20 -84 -19 -84 5 0 26 55 60 97
60 18 0 51 -7 73 -16z m2108 -4 c64 -39 30 -74 -47 -46 -25 9 -67 16 -93 16
-56 0 -62 15 -15 35 47 21 116 19 155 -5z m782 -30 c22 -14 -16 -39 -60 -39
l-35 0 28 24 c30 27 44 30 67 15z m-3740 -52 c0 -3 -15 -1 -34 4 -23 7 -34 17
-33 28 1 16 4 16 34 -4 18 -11 33 -24 33 -28z m538 -3 c-19 -61 17 -79 69 -33
17 16 25 18 42 9 30 -16 28 -65 -4 -96 -26 -27 -89 -34 -124 -15 -43 22 -51
111 -14 152 28 31 43 23 31 -17z m2622 3 c44 -73 9 -148 -69 -148 -74 0 -127
72 -85 114 20 21 31 20 61 -4 14 -11 35 -20 46 -20 18 0 19 5 14 45 -8 54 5
59 33 13z m-825 -12 c0 -36 -26 -56 -49 -37 -19 16 -21 57 -3 65 30 12 52 1
52 -28z m-1367 -65 c-32 -21 -121 -112 -114 -118 3 -3 39 13 81 36 77 42 95
45 95 12 0 -21 -63 -82 -111 -107 -35 -17 -169 -57 -175 -51 -2 2 8 39 23 83
31 92 85 157 148 179 35 12 42 11 58 -3 18 -16 18 -17 -5 -31z m416 2 c20 -11
25 -18 18 -25 -8 -8 -27 -1 -67 25 -30 21 -55 39 -55 42 0 5 60 -20 104 -42z
m1401 13 c13 -8 35 -30 49 -49 27 -36 90 -176 82 -184 -2 -3 -38 3 -80 12 -81
18 -148 56 -191 107 -23 27 -25 33 -11 46 13 13 23 10 87 -27 39 -23 74 -39
78 -36 7 7 -97 109 -118 116 -11 4 -11 9 -3 26 10 18 17 20 47 13 20 -4 46
-15 60 -24z m-546 -40 c9 -11 10 -20 1 -36 -21 -39 -83 -7 -67 34 8 20 50 21
66 2z m-441 -74 c3 -16 -2 -22 -17 -22 -24 0 -35 15 -27 36 9 23 40 13 44 -14z
m-679 -63 l24 -20 -38 -39 c-46 -47 -35 -53 15 -10 41 35 50 37 50 10 0 -23
-132 -140 -159 -140 -17 0 -17 5 -9 53 11 61 38 125 62 150 22 21 25 21 55 -4z
m932 11 c10 -6 19 -17 19 -24 0 -21 -35 -47 -54 -40 -19 7 -21 45 -4 62 15 15
15 15 39 2z m566 -45 c21 -37 31 -65 47 -137 5 -23 3 -28 -12 -28 -26 0 -162
127 -162 152 0 18 5 16 46 -17 55 -45 71 -38 23 11 -33 35 -34 36 -14 50 29
21 47 14 72 -31z m-2599 9 c132 -19 260 -17 365 4 48 10 87 17 87 16 0 -10
-85 -51 -143 -70 l-72 -23 86 -1 c54 0 113 7 159 19 41 11 76 18 78 16 2 -1
-12 -14 -30 -28 -118 -88 -284 -99 -456 -30 -75 29 -192 100 -192 114 0 6 5 7
11 3 6 -3 54 -12 107 -20z m3461 -14 c40 0 121 7 178 16 58 8 107 13 110 10
10 -10 -156 -97 -230 -121 -171 -55 -304 -41 -415 42 -18 14 -31 27 -29 30 3
2 35 -5 72 -16 48 -15 94 -21 161 -21 97 0 128 14 51 22 -43 5 -167 55 -167
68 0 3 44 -2 98 -11 53 -10 130 -18 171 -19z m-1573 -15 c8 -33 -16 -70 -55
-83 -27 -9 -33 -8 -46 11 -22 31 -19 53 11 76 38 30 82 28 90 -4z m-965 -81
c-14 -74 -14 -184 -1 -184 6 0 27 7 47 15 45 19 43 20 43 -10 0 -15 -11 -36
-24 -49 -30 -27 -125 -80 -133 -73 -2 3 -6 45 -8 94 -3 66 -7 87 -17 85 -60
-16 -132 -21 -178 -12 -30 6 -55 12 -58 15 -2 2 16 17 42 33 43 28 139 54 180
49 12 -1 25 10 37 32 16 31 68 75 77 67 2 -2 -1 -30 -7 -62z m1851 -1 c11 -32
14 -33 63 -33 65 0 132 -23 176 -59 l34 -29 -38 -7 c-39 -8 -147 -1 -199 11
l-28 6 0 -58 c0 -33 -3 -76 -6 -96 l-6 -37 -57 31 c-65 35 -101 71 -101 99 0
23 1 23 47 4 23 -10 40 -12 46 -6 10 10 4 181 -8 219 l-8 23 37 -17 c24 -12
40 -29 48 -51z m-1523 -20 c6 -21 11 -47 11 -58 0 -11 3 -30 6 -41 6 -21 6
-21 29 2 26 25 65 32 65 12 -1 -24 -25 -55 -79 -102 -54 -48 -112 -111 -143
-156 l-17 -25 -1 40 c0 22 -11 75 -25 118 -31 96 -31 121 -3 149 l22 22 13
-49 c6 -28 15 -74 19 -102 3 -29 10 -53 14 -53 4 0 16 19 26 42 14 33 18 62
17 121 -4 109 25 158 46 80z m1159 25 c7 -7 12 -45 12 -99 0 -65 5 -99 20
-135 11 -26 23 -44 27 -41 3 4 12 50 19 103 8 54 16 100 20 103 11 11 44 -41
44 -70 0 -16 -9 -55 -19 -87 -11 -32 -23 -81 -27 -110 l-7 -53 -28 43 c-16 24
-69 81 -119 128 -49 47 -90 93 -90 103 0 26 47 22 74 -8 l23 -25 6 63 c9 92
19 111 45 85z m-848 -242 c0 -58 7 -74 40 -91 25 -13 30 -13 53 5 14 11 28 20
31 20 12 0 5 -48 -8 -59 -10 -8 -13 -23 -9 -46 7 -43 -26 -114 -70 -151 -43
-37 -141 -82 -194 -90 -24 -3 -46 -10 -48 -15 -3 -4 11 -31 32 -60 46 -64 57
-144 27 -200 l-18 -34 -7 52 c-7 58 -39 116 -75 140 -29 18 -27 19 -47 -29
-15 -35 -14 -37 8 -58 31 -29 55 -81 55 -118 0 -60 -76 -116 -126 -93 -35 16
-27 42 19 64 20 9 37 23 37 30 0 7 -13 28 -29 47 l-29 35 -68 -140 c-38 -77
-70 -144 -72 -148 -10 -22 234 43 293 78 53 31 112 91 138 140 28 56 36 185
13 220 -16 24 -16 26 1 31 146 50 239 158 282 327 10 38 20 66 23 61 3 -5 13
-36 23 -69 40 -140 137 -259 248 -304 l56 -23 -17 -26 c-25 -38 -21 -134 7
-197 43 -96 130 -162 276 -208 81 -25 165 -41 165 -32 0 6 -130 268 -137 275
-7 7 -53 -52 -53 -68 0 -7 16 -20 35 -28 43 -18 47 -49 9 -66 -22 -10 -32 -9
-62 7 -73 39 -79 115 -15 186 l36 40 -18 39 c-10 22 -21 40 -25 40 -11 0 -68
-64 -84 -97 -9 -18 -16 -49 -16 -70 0 -43 -12 -35 -29 18 -16 50 2 125 45 186
19 26 34 51 34 55 0 5 -13 8 -28 8 -45 0 -142 37 -197 75 -68 47 -98 93 -99
155 -1 27 -7 55 -14 62 -12 12 -17 68 -7 68 3 0 16 -12 29 -27 21 -25 26 -26
50 -15 34 15 58 70 50 111 -8 37 8 41 30 9 41 -58 -7 -198 -67 -198 -17 0 -19
-5 -13 -32 11 -58 75 -103 162 -115 l45 -6 -25 38 c-23 33 -26 48 -26 119 l0
81 23 -55 c13 -30 59 -116 104 -190 44 -74 99 -171 122 -215 50 -93 195 -314
258 -391 24 -29 43 -55 43 -57 0 -15 -113 -29 -199 -25 -114 6 -180 30 -292
105 -160 108 -194 167 -187 322 l5 99 -34 16 c-52 25 -141 114 -176 174 l-30
53 -23 -42 c-41 -72 -100 -133 -161 -169 -59 -35 -60 -35 -52 -70 13 -55 10
-132 -7 -190 -20 -66 -96 -146 -200 -208 -121 -72 -171 -86 -314 -87 -168 0
-171 1 -122 67 72 98 198 292 259 398 87 150 243 456 244 477 1 10 5 -4 9 -30
11 -63 -4 -154 -30 -189 l-21 -28 25 0 c60 0 158 55 182 102 19 36 19 36 -21
53 -39 16 -60 52 -71 124 -5 30 -2 48 10 66 24 37 36 31 36 -19z m-768 -86 c5
-54 5 -55 34 -52 54 5 129 34 167 64 81 63 29 -3 -122 -156 -87 -89 -168 -180
-180 -203 -24 -49 -27 -95 -7 -112 17 -14 49 -101 37 -101 -4 0 -52 10 -107
22 -54 11 -136 22 -181 22 -68 1 -86 -2 -110 -20 -61 -46 -64 -136 -7 -204 33
-39 13 -40 -47 -2 -112 71 -142 179 -74 268 23 31 109 84 134 84 5 0 22 5 38
11 27 10 27 10 -32 35 -172 73 -225 79 -272 31 -27 -26 -47 -98 -37 -129 4
-14 2 -18 -5 -14 -18 12 -42 108 -35 146 18 96 84 160 165 160 64 0 119 -21
223 -87 95 -60 128 -68 167 -38 40 30 134 152 190 246 29 49 53 88 55 87 1 -2
4 -28 6 -58z m2081 -3 c53 -117 211 -297 260 -297 13 0 59 23 101 51 109 72
172 99 230 99 98 0 176 -77 176 -176 0 -43 -22 -124 -33 -124 -2 0 -2 13 1 29
2 16 -5 49 -16 74 -36 81 -103 86 -262 19 -49 -20 -90 -39 -90 -42 0 -3 27
-13 60 -24 81 -25 144 -80 159 -141 20 -80 -10 -146 -92 -206 -53 -39 -75 -39
-48 -1 32 45 45 114 31 157 -10 30 -21 41 -58 57 -53 24 -109 21 -281 -12 -57
-11 -106 -19 -107 -17 -7 7 18 71 39 100 17 25 18 34 8 67 -18 59 -91 149
-221 271 -109 102 -137 135 -126 146 2 2 21 -8 41 -22 32 -21 149 -65 175 -65
4 0 11 25 15 55 3 30 8 55 10 55 2 0 15 -24 28 -53z m-1003 -386 c0 -17 -41
-81 -52 -81 -8 0 -58 63 -58 74 0 3 12 25 27 47 l27 41 28 -34 c15 -18 28 -39
28 -47z m-31 -203 c2 -5 -15 -29 -37 -51 -69 -72 -112 -137 -112 -167 0 -21
14 -45 45 -80 44 -50 54 -80 35 -110 -10 -16 -18 -9 -61 58 -21 33 -39 42 -39
19 0 -35 24 -84 67 -138 26 -34 55 -70 63 -81 15 -19 17 -18 53 33 21 30 53
76 72 103 19 26 35 60 35 75 0 25 -3 23 -45 -24 -24 -27 -44 -45 -45 -38 0 6
-2 18 -6 26 -3 8 14 37 40 67 64 75 61 121 -9 199 -32 35 -39 61 -17 61 19 0
108 -101 129 -147 19 -42 24 -69 24 -134 0 -102 -17 -140 -115 -251 -109 -125
-90 -125 -196 -2 -51 58 -99 122 -106 142 -19 52 -17 169 3 228 13 38 35 67
100 130 l83 80 -65 58 c-61 54 -85 92 -71 115 6 9 166 -148 175 -171z m131
147 c0 -36 -70 -111 -95 -101 -15 5 -11 13 29 56 25 27 46 54 46 60 0 5 5 10
10 10 6 0 10 -11 10 -25z m-1124 -1 c39 -19 64 -59 64 -101 -1 -60 -80 -153
-131 -153 -16 0 -15 5 7 50 31 64 30 70 -6 105 -48 46 -37 113 18 115 8 0 29
-7 48 -16z m2018 0 c25 -25 19 -63 -14 -94 -35 -33 -37 -56 -9 -111 24 -48 20
-56 -19 -40 -44 18 -78 56 -97 105 -16 43 -16 46 1 83 12 23 33 45 54 55 43
22 64 23 84 2z m-999 -310 c19 -26 35 -51 35 -56 0 -5 -18 -28 -39 -51 l-40
-42 -31 30 c-44 41 -52 64 -33 95 20 33 54 70 64 70 5 0 24 -21 44 -46z m300
-122 c95 -52 109 -134 37 -214 -36 -40 -85 -68 -118 -68 -15 0 -15 3 3 23 48
52 66 124 42 168 -12 24 -29 119 -20 119 3 0 29 -13 56 -28z m-645 -16 c0 -18
-7 -53 -15 -76 -26 -73 -19 -116 29 -169 l21 -24 -30 7 c-72 17 -144 96 -145
158 0 38 34 87 79 112 25 14 49 26 54 26 4 0 7 -15 7 -34z m-202 -138 c6 -23
9 -44 7 -46 -1 -2 -27 9 -57 24 l-53 27 40 18 c22 10 43 19 46 19 4 0 11 -19
17 -42z m1043 25 c16 -10 29 -20 29 -24 0 -3 -22 -16 -50 -27 -27 -12 -50 -18
-50 -15 0 20 25 83 33 83 5 0 22 -8 38 -17z m1929 -644 c25 -5 69 -19 98 -30
l52 -21 0 -89 0 -88 -42 18 c-118 50 -312 70 -374 38 -45 -23 -68 -54 -68 -92
0 -62 30 -81 200 -126 181 -47 223 -66 275 -119 125 -128 73 -346 -104 -433
-130 -63 -352 -57 -519 15 l-48 20 0 85 c0 77 2 85 18 80 156 -52 270 -77 347
-77 99 0 175 49 175 112 0 69 -44 95 -242 147 -140 36 -205 67 -247 118 -57
70 -69 189 -27 278 69 148 267 212 506 164z m-3446 -5 c240 -62 388 -263 373
-509 -7 -114 -26 -177 -80 -257 -103 -153 -266 -227 -472 -215 -154 10 -277
69 -361 176 -80 102 -114 196 -114 321 0 145 45 255 145 355 102 102 204 143
359 144 50 1 115 -6 150 -15z m-1191 -19 c90 -19 196 -76 252 -136 122 -130
156 -345 84 -532 -27 -71 -117 -172 -187 -210 -101 -55 -180 -67 -438 -67
l-234 0 -2 480 -3 480 230 0 c161 0 250 -5 298 -15z m2077 -211 c80 -125 158
-249 175 -275 16 -27 32 -49 35 -49 3 0 38 53 78 118 39 64 117 187 171 272
l99 155 91 3 91 3 0 -481 0 -480 -92 0 -93 0 0 305 c0 168 -2 305 -5 305 -3 0
-82 -117 -175 -260 l-168 -259 -90 137 c-155 238 -227 351 -233 367 -19 48
-24 -14 -24 -290 l0 -305 -95 0 -95 0 0 480 0 480 93 0 93 0 144 -226z m1160
-96 c0 -292 2 -327 19 -363 39 -86 113 -120 248 -113 68 4 88 9 123 32 77 51
80 64 80 439 l0 327 100 0 101 0 -3 -347 -3 -348 -27 -57 c-69 -147 -210 -228
-396 -228 -177 0 -323 84 -396 228 -38 75 -46 154 -46 470 l0 282 100 0 100 0
0 -322z m19 -979 c27 -10 31 -15 31 -49 l0 -38 -37 14 c-83 29 -163 12 -163
-35 0 -27 19 -39 81 -52 103 -22 138 -50 139 -112 0 -51 -23 -93 -63 -114 -39
-20 -145 -22 -199 -4 -35 12 -38 15 -38 51 l0 39 33 -13 c102 -42 213 -20 191
38 -6 16 -63 41 -118 51 -21 4 -52 21 -72 40 -29 28 -34 39 -34 78 0 50 18 78
65 102 35 17 138 20 184 4z m-2054 -127 l100 -126 3 127 3 127 39 0 40 0 0
-200 0 -200 -34 0 c-31 0 -40 9 -131 125 -54 69 -102 125 -107 125 -4 0 -8
-56 -8 -125 l0 -125 -35 0 -35 0 0 200 0 200 33 0 c29 -1 41 -13 132 -128z
m757 93 l-4 -35 -104 0 -104 0 0 -45 0 -44 93 -3 92 -3 3 -32 3 -33 -95 0 -96
0 0 -50 0 -50 104 0 104 0 4 -30 c3 -17 2 -32 0 -35 -3 -3 -72 -5 -154 -5
l-148 0 0 200 0 200 153 0 153 0 -4 -35z m352 -93 c22 -70 43 -133 47 -141 4
-9 15 13 28 55 12 38 34 102 48 142 25 72 25 72 62 72 l36 0 44 -130 c25 -72
47 -130 51 -130 3 0 25 59 48 130 l43 130 41 0 c28 0 39 -4 36 -12 -3 -7 -33
-97 -67 -200 l-63 -188 -36 0 -37 0 -49 135 c-27 75 -52 132 -56 128 -4 -4
-27 -65 -50 -135 l-44 -128 -36 0 -36 0 -38 108 c-21 59 -53 149 -72 200 l-33
92 47 0 47 0 39 -128z"/>
<path d="M5372 6342 c-16 -27 -40 -76 -52 -111 -13 -34 -27 -64 -31 -67 -4 -2
-16 7 -25 21 -24 37 -32 23 -21 -37 7 -41 6 -61 -5 -88 l-15 -35 -23 50 c-28
61 -39 39 -20 -41 17 -70 9 -86 -19 -41 -23 38 -59 53 -46 20 13 -37 14 -109
1 -138 l-13 -30 -28 63 c-37 84 -50 80 -40 -10 4 -40 8 -90 7 -110 0 -44 6
-47 37 -14 12 13 45 39 72 57 27 19 49 39 49 45 0 13 37 46 73 64 28 14 28 14
6 22 -27 10 -23 16 62 72 78 51 87 69 30 60 -61 -10 -53 15 27 78 30 24 29 40
-3 28 -14 -5 -25 -7 -25 -3 0 3 9 46 21 95 12 49 19 92 16 94 -2 3 -18 -17
-35 -44z"/>
<path d="M5530 5654 c0 -6 7 -30 15 -53 8 -23 12 -55 8 -71 -3 -19 -1 -30 6
-30 17 0 23 44 12 86 -11 40 -40 89 -41 68z"/>
<path d="M4407 6203 c-3 -4 20 -35 50 -67 41 -44 54 -53 48 -35 -17 58 -83
127 -98 102z"/>
<path d="M4981 4242 c-8 -16 -9 -28 -1 -42 13 -25 26 -25 40 -1 7 15 5 25 -9
42 l-18 23 -12 -22z"/>
<path d="M4978 3824 c-20 -44 20 -85 42 -43 9 17 9 27 -1 45 -16 31 -27 30
-41 -2z"/>
<path d="M3820 2791 c-188 -39 -293 -233 -234 -432 46 -155 191 -238 365 -209
164 28 258 157 247 341 -10 174 -119 287 -293 303 -27 3 -66 1 -85 -3z"/>
<path d="M2500 2470 l0 -312 148 4 c175 4 227 21 292 96 96 108 95 323 -1 427
-66 72 -119 89 -291 93 l-148 4 0 -312z"/>
</g>
</svg>
